
<svg xmlns="http://www.w3.org/2000/svg" width="48" height="48" viewBox="0 0 48 48" fill="none">
  <circle cx="24" cy="24" r="24" fill="#120F52"/>
  <path d="M16.5 34C16.0667 34 15.7083 33.8583 15.425 33.575C15.1417 33.2917 15 32.9333 15 32.5V15.5C15 15.0667 15.1417 14.7083 15.425 14.425C15.7083 14.1417 16.0667 14 16.5 14H21.9C23.4333 14 24.7333 14.3667 25.8 15.1C26.8667 15.8333 27.4 16.9 27.4 18.3C27.4 19.1 27.2167 19.7833 26.85 20.35C26.4833 20.9167 26 21.3333 25.4 21.6C26.2 21.8667 26.8333 22.3333 27.3 23C27.7667 23.6667 28 24.4667 28 25.4C28 26.8667 27.4417 28.025 26.325 28.875C25.2083 29.725 23.7667 30.15 22 30.15H19V32.5C19 32.9333 18.8583 33.2917 18.575 33.575C18.2917 33.8583 17.9333 34 17.5 34H16.5ZM19 19H21.5C22.1667 19 22.7083 18.8417 23.125 18.525C23.5417 18.2083 23.75 17.7667 23.75 17.2C23.75 16.6333 23.5417 16.1917 23.125 15.875C22.7083 15.5583 22.1667 15.4 21.5 15.4H19V19ZM19 25.2H22C22.6667 25.2 23.2083 25.025 23.625 24.675C24.0417 24.325 24.25 23.85 24.25 23.25C24.25 22.65 24.0417 22.175 23.625 21.825C23.2083 21.475 22.6667 21.3 22 21.3H19V25.2ZM33.5 34C33.0667 34 32.7083 33.8583 32.425 33.575C32.1417 33.2917 32 32.9333 32 32.5V14.5C32 14.0667 32.1417 13.7083 32.425 13.425C32.7083 13.1417 33.0667 13 33.5 13H34.5C34.9333 13 35.2917 13.1417 35.575 13.425C35.8583 13.7083 36 14.0667 36 14.5V32.5C36 32.9333 35.8583 33.2917 35.575 33.575C35.2917 33.8583 34.9333 34 34.5 34H33.5Z" fill="#DAC751"/>
</svg>
